<svg id="visual" viewBox="0 0 540 2000" width="540" height="2000" xmlns="http://www.w3.org/2000/svg" xmlns:xlink="http://www.w3.org/1999/xlink" version="1.1"><rect x="0" y="0" width="540" height="2000" fill="#141E46"></rect><path d="M227 2000L247 1714L253 1429L349 1143L310 857L282 571L307 286L341 0L540 0L540 286L540 571L540 857L540 1143L540 1429L540 1714L540 2000Z" fill="#351e45"></path><path d="M321 2000L324 1714L369 1429L308 1143L370 857L299 571L383 286L368 0L540 0L540 286L540 571L540 857L540 1143L540 1429L540 1714L540 2000Z" fill="#632a5a"></path><path d="M410 2000L429 1714L395 1429L388 1143L382 857L410 571L370 286L376 0L540 0L540 286L540 571L540 857L540 1143L540 1429L540 1714L540 2000Z" fill="#953666"></path><path d="M447 2000L461 1714L429 1429L437 1143L441 857L424 571L455 286L465 0L540 0L540 286L540 571L540 857L540 1143L540 1429L540 1714L540 2000Z" fill="#c54768"></path><path d="M464 2000L472 1714L451 1429L470 1143L457 857L484 571L497 286L482 0L540 0L540 286L540 571L540 857L540 1143L540 1429L540 1714L540 2000Z" fill="#ef6161"></path></svg>