<svg id="visual" viewBox="0 0 450 3000" width="450" height="3000" xmlns="http://www.w3.org/2000/svg" xmlns:xlink="http://www.w3.org/1999/xlink" version="1.1"><rect x="0" y="0" width="450" height="3000" fill="#141E46"></rect><path d="M263 3000L327 2769L350 2538L267 2308L343 2077L258 1846L291 1615L258 1385L274 1154L252 923L272 692L295 462L250 231L291 0L450 0L450 231L450 462L450 692L450 923L450 1154L450 1385L450 1615L450 1846L450 2077L450 2308L450 2538L450 2769L450 3000Z" fill="#141e46"></path><path d="M269 3000L296 2769L310 2538L354 2308L348 2077L298 1846L360 1615L344 1385L313 1154L320 923L334 692L306 462L292 231L328 0L450 0L450 231L450 462L450 692L450 923L450 1154L450 1385L450 1615L450 1846L450 2077L450 2308L450 2538L450 2769L450 3000Z" fill="#312555"></path><path d="M366 3000L303 2769L359 2538L350 2308L353 2077L330 1846L284 1615L348 1385L324 1154L351 923L349 692L327 462L331 231L288 0L450 0L450 231L450 462L450 692L450 923L450 1154L450 1385L450 1615L450 1846L450 2077L450 2308L450 2538L450 2769L450 3000Z" fill="#4e2c61"></path><path d="M356 3000L372 2769L334 2538L352 2308L353 2077L374 1846L324 1615L332 1385L377 1154L344 923L303 692L330 462L327 231L382 0L450 0L450 231L450 462L450 692L450 923L450 1154L450 1385L450 1615L450 1846L450 2077L450 2308L450 2538L450 2769L450 3000Z" fill="#6b316a"></path><path d="M370 3000L378 2769L362 2538L370 2308L364 2077L336 1846L386 1615L339 1385L344 1154L340 923L360 692L390 462L387 231L355 0L450 0L450 231L450 462L450 692L450 923L450 1154L450 1385L450 1615L450 1846L450 2077L450 2308L450 2538L450 2769L450 3000Z" fill="#89366f"></path><path d="M400 3000L365 2769L388 2538L354 2308L349 2077L382 1846L347 1615L348 1385L366 1154L362 923L385 692L355 462L384 231L379 0L450 0L450 231L450 462L450 692L450 923L450 1154L450 1385L450 1615L450 1846L450 2077L450 2308L450 2538L450 2769L450 3000Z" fill="#a63c70"></path><path d="M401 3000L395 2769L398 2538L386 2308L388 2077L406 1846L395 1615L383 1385L407 1154L407 923L383 692L412 462L415 231L397 0L450 0L450 231L450 462L450 692L450 923L450 1154L450 1385L450 1615L450 1846L450 2077L450 2308L450 2538L450 2769L450 3000Z" fill="#c1456e"></path><path d="M398 3000L397 2769L416 2538L395 2308L412 2077L407 1846L423 1615L426 1385L391 1154L424 923L415 692L418 462L417 231L418 0L450 0L450 231L450 462L450 692L450 923L450 1154L450 1385L450 1615L450 1846L450 2077L450 2308L450 2538L450 2769L450 3000Z" fill="#da5169"></path><path d="M430 3000L433 2769L435 2538L421 2308L431 2077L422 1846L433 1615L429 1385L422 1154L427 923L429 692L416 462L427 231L414 0L450 0L450 231L450 462L450 692L450 923L450 1154L450 1385L450 1615L450 1846L450 2077L450 2308L450 2538L450 2769L450 3000Z" fill="#ef6161"></path></svg>